<?xml version="1.0" encoding="UTF-8" standalone="no"?>
<!-- Created with Inkscape (http://www.inkscape.org/) -->

<svg
   width="300mm"
   height="300mm"
   viewBox="0 0 300 300"
   version="1.1"
   id="svg5"
   xmlns="http://www.w3.org/2000/svg"
   xmlnsSvg="http://www.w3.org/2000/svg">
  <defs
     id="defs2" />
  <g
     id="layer1">
    <g
       id="g11216"
       transform="matrix(1.4083471,0,0,1.4083471,2.6932804,-66.726651)">
      <ellipse
         style="fill:#ececec;fill-opacity:0.99;stroke:#000000;stroke-width:0"
         id="path788"
         cx="112.00423"
         cy="132.76907"
         rx="60.406776"
         ry="59.777538" />
      <ellipse
         style="fill:#ececec;fill-opacity:0.99;stroke:#000000;stroke-width:0"
         id="path842"
         cx="110.11652"
         cy="282.52756"
         rx="86.205505"
         ry="95.014832" />
      <path
         style="fill:#cccccc;fill-opacity:0.99;stroke:#000000;stroke-width:0"
         id="path898"
         d="M 134.63942,162.45605 A 22.005947,12.897194 0 0 1 119.1213,174.78 22.005947,12.897194 0 0 1 94.453033,169.72278 22.005947,12.897194 0 0 1 95.425674,154.41689 l 17.207806,8.03916 z" />
      <rect
         style="fill:#f2f2f2;fill-opacity:0.99;stroke:#000000;stroke-width:0"
         id="rect1058"
         width="76.766945"
         height="57.889828"
         x="71.733047"
         y="99.419487" />
      <circle
         style="fill:#999999;fill-opacity:0.99;stroke:#000000;stroke-width:0"
         id="path1166"
         cx="86.205505"
         cy="117.66737"
         r="9.4385586" />
      <rect
         style="fill:#f2f2f2;fill-opacity:0.99;stroke:#000000;stroke-width:0"
         id="rect1220"
         width="47.822033"
         height="22.652542"
         x="62.923725"
         y="95.644066" />
      <path
         style="fill:#ececec;fill-opacity:0.992157;stroke:#000000;stroke-width:0"
         d="M 273.49526,520.83011 V 447.1053 h -16.82602 -16.82603 l 1.3676,-43.99707 c 0.75218,-24.19838 2.97289,-43.46196 4.93493,-42.80795 1.96203,0.65401 41.02429,1.18911 86.80501,1.18911 70.8181,0 83.23769,1.06454 83.23769,7.13466 0,6.02482 11.09836,7.13466 71.34659,7.13466 h 71.34659 v 109.3981 109.39811 H 416.18844 273.49526 Z m 80.51425,-52.96228 c 5.42195,-6.8929 9.8581,-14.38429 9.8581,-16.64754 0,-2.26324 -17.12318,-4.11499 -38.05151,-4.11499 -20.92834,0 -38.05152,1.85175 -38.05152,4.11499 0,2.26325 4.43615,9.75464 9.8581,16.64754 7.60391,9.6668 14.05073,12.53254 28.19342,12.53254 14.14268,0 20.5895,-2.86574 28.19341,-12.53254 z"
         id="path1705"
         transform="scale(0.26458333)" />
      <path
         style="fill:#ececec;fill-opacity:0.992157;stroke:#000000;stroke-width:0"
         d="M 375.92865,1421.7998 C 246.75839,1402.2506 144.97399,1306.1348 104.33057,1165.3276 92.011345,1122.6483 91.844225,1014.6128 104.02933,970.58879 136.70426,852.53624 223.45218,756.95764 326.97144,724.95179 l 27.31576,-8.44543 -29.69398,-14.19713 C 286.62864,684.15779 236.86896,635.1222 220.07441,599.31136 203.50806,563.98711 195.44766,519.78838 198.87624,483.07247 c 3.00872,-32.21964 16.56569,-76.1174 28.98191,-93.84404 7.24722,-10.34685 7.6107,-9.24448 8.14836,24.71257 0.67692,42.75299 7.48419,24.69742 8.38736,-22.24659 0.56138,-29.17881 0.62745,-29.3096 26.96901,-53.3843 50.34916,-46.0163 114.03122,-65.83033 183.81283,-57.1915 89.69525,11.10409 170.02162,85.37452 188.77678,174.54457 21.77493,103.52717 -34.71259,211.63914 -131.03391,250.78705 -28.17949,11.453 -28.152,12.20275 0.77687,21.19015 75.41002,23.42779 154.56316,98.48802 192.81031,182.84033 24.31582,53.62743 30.31645,84.69092 30.39374,157.33989 0.0766,72.0589 -5.5706,100.9902 -30.76584,157.6151 -59.47404,133.6649 -198.44251,216.3057 -330.20501,196.3641 z M 503.23572,637.30946 c 22.60113,-6.98078 34.94914,-14.09596 45.68719,-26.32592 L 563.63806,594.22391 562.54099,483.8022 561.44392,373.38049 560.07511,483.9677 558.7063,594.55492 H 425.61366 c -73.20095,0 -133.09264,1.73995 -133.09264,3.86655 0,9.76922 30.00517,30.93805 55.30979,39.02139 39.77854,12.7069 114.03925,12.64315 155.40491,-0.13342 z M 272.2812,484.19355 c -0.88334,-21.70656 -1.611,-5.22011 -1.61702,36.63656 -0.006,41.85666 0.71672,59.61658 1.60608,39.46647 0.88936,-20.15012 0.89429,-54.39648 0.0109,-76.10303 z m 79.05386,-13.65128 c 22.78472,-17.92246 16.78032,-23.43697 -25.51896,-23.43697 -29.7927,0 -38.05152,1.4736 -38.05152,6.78943 0,10.24481 23.34406,26.50564 38.05152,26.50564 7.14253,0 18.62606,-4.43614 25.51896,-9.8581 z m 69.60982,-104.29644 c 0,-2.61604 -4.81589,-4.606 -10.70199,-4.42213 -10.2116,0.31899 -10.26609,0.52162 -1.18911,4.42213 5.23209,2.2483 10.04798,4.23826 10.70199,4.42213 0.65401,0.18387 1.18911,-1.80609 1.18911,-4.42213 z m -27.34952,-3.1501 c -3.27006,-1.31949 -8.62105,-1.31949 -11.8911,0 -3.27005,1.3195 -0.59456,2.39908 5.94555,2.39908 6.5401,0 9.2156,-1.07958 5.94555,-2.39908 z"
         id="path1707"
         transform="scale(0.26458333)" />
      <path
         style="fill:#ececec;fill-opacity:0.992157;stroke:#000000;stroke-width:0"
         d="m 92.063924,375.20333 c -11.594952,-1.8343 -18.286539,-3.84252 -27.686442,-8.30905 -8.936447,-4.24633 -12.567427,-6.9731 -22.061243,-16.56755 -12.851942,-12.98813 -19.853405,-24.80516 -24.74191,-41.75924 -4.137022,-14.3478 -4.137844,-40.76673 -0.0019,-55.30165 20.98367,-68.11577 83.084531,-39.05873 40.822369,-81.79797 -12.528129,-12.83996 -17.57994,-26.66553 -16.325445,-44.67873 3.737658,-23.07094 13.757005,-38.787986 33.938241,-49.08812 35.974916,-16.721077 78.821706,5.866561 84.385346,44.48561 12.65019,45.98698 -60.14142,56.61086 -25.54093,72.87017 8.96294,4.21992 12.54637,6.89835 22.105,16.52238 9.61816,9.68396 12.32018,13.36154 17.22218,23.44016 8.55776,17.595 10.24423,25.10491 10.31492,45.93293 0.0701,20.65054 -2.31374,31.02798 -10.96899,47.75083 -6.59383,12.73995 -24.03753,30.79163 -35.52693,36.76515 -13.68741,7.11632 -34.54521,11.53679 -45.934314,9.73508 z"
         id="path1709" />
      <ellipse
         style="fill:#cccccc;fill-opacity:0.992157;stroke:#000000;stroke-width:0"
         id="path3472"
         cx="87.689644"
         cy="120.77016"
         rx="6.3010521"
         ry="5.7759647" />
      <ellipse
         style="fill:#cccccc;fill-opacity:0.992157;stroke:#000000;stroke-width:0"
         id="ellipse3474"
         cx="134.42244"
         cy="119.71999"
         rx="6.3010521"
         ry="5.7759647" />
      <path
         id="path3476"
         style="fill:#cccccc;fill-opacity:0.992157;stroke:#000000;stroke-width:0"
         d="m 84.593803,161.72708 c -0.0357,0.17479 -0.05397,0.34988 -0.05478,0.52503 -2.77e-4,4.64006 11.98956,12.07722 26.779767,12.07717 14.79,-4e-5 26.77952,-7.43717 26.77924,-12.07717 -3e-4,-0.17514 -0.018,-0.35024 -0.0532,-0.52503 z" />
      <path
         style="fill:#4d4d4d;fill-opacity:0.992157;stroke:#000000;stroke-width:0"
         d="m 137.57297,135.99771 -7.35123,-1.05018"
         id="path5941" />
    </g>
  </g>
</svg>
